<svg width="501" height="488" viewBox="0 0 501 488" fill="none" xmlns="http://www.w3.org/2000/svg">
<path d="M250.278 0.25588C112.137 0.200021 0.25 112.031 0.25 250.06C0.25 359.21 70.2422 451.993 167.717 486.067C180.844 489.363 178.833 480.035 178.833 473.667V430.375C103.032 439.257 99.9595 389.095 94.8763 380.716C84.5981 363.176 60.2992 358.707 67.5609 350.328C84.8216 341.447 102.417 352.563 122.806 382.671C137.553 404.512 166.321 400.826 180.9 397.195C184.084 384.068 190.899 372.337 200.284 363.232C121.745 349.155 89.011 301.228 89.011 244.251C89.011 216.6 98.1162 191.184 115.991 170.684C104.596 136.889 117.053 107.953 118.728 103.652C151.183 100.747 184.922 126.89 187.548 128.957C205.981 123.985 227.04 121.36 250.613 121.36C274.298 121.36 295.413 124.097 314.014 129.124C320.326 124.32 351.607 101.865 381.772 104.602C383.392 108.903 395.569 137.168 384.844 170.516C402.942 191.073 412.159 216.712 412.159 244.419C412.159 301.507 379.202 349.491 300.44 363.344C307.186 369.978 312.543 377.89 316.197 386.618C319.851 395.346 321.729 404.714 321.722 414.176V477.018C322.169 482.046 321.722 487.017 330.101 487.017C429.029 453.669 500.25 360.216 500.25 250.116C500.25 112.031 388.307 0.25588 250.278 0.25588Z" fill="white"/>
</svg>
