<svg width="501" height="501" viewBox="0 0 501 501" fill="none" xmlns="http://www.w3.org/2000/svg">
<path d="M236.913 195.953V133.844L132.449 203.375L179.1 234.513L236.913 195.953ZM378.71 272.795V228.263L345.339 250.529L378.71 272.795ZM250.25 0.25C112.192 0.25 0.25 112.192 0.25 250.25C0.25 388.308 112.192 500.25 250.25 500.25C388.308 500.25 500.25 388.308 500.25 250.25C500.25 112.192 388.308 0.25 250.25 0.25ZM405.384 297.683C405.384 298.297 405.328 298.855 405.272 299.413C405.272 299.636 405.217 299.804 405.161 299.971C405.082 300.582 404.932 301.181 404.714 301.757C404.603 302.092 404.491 302.426 404.379 302.705C404.268 302.929 404.156 303.152 404.1 303.375C403.933 303.654 403.821 303.989 403.654 304.268C403.542 304.491 403.431 304.659 403.263 304.882C403.096 305.161 402.873 305.44 402.705 305.719C402.538 305.942 402.426 306.109 402.259 306.277C402.036 306.5 401.813 306.779 401.589 307.002C401.422 307.17 401.254 307.337 401.031 307.504C400.808 307.728 400.529 307.951 400.25 308.118C400.027 308.286 399.859 308.453 399.636 308.565C399.58 308.621 399.469 308.676 399.413 308.732L257.616 403.152C255.384 404.658 252.817 405.384 250.25 405.384C247.627 405.384 245.06 404.603 242.828 403.152L101.031 308.788C100.975 308.732 100.864 308.676 100.808 308.621L100.194 308.174C99.9152 307.951 99.692 307.783 99.4688 307.56C99.3013 307.393 99.1339 307.225 98.9107 307.058C98.6875 306.835 98.4643 306.612 98.2411 306.333C98.0755 306.161 97.9261 305.974 97.7946 305.775C97.5714 305.496 97.404 305.217 97.2366 304.938C97.125 304.714 96.9576 304.547 96.846 304.324C96.6786 304.045 96.5112 303.71 96.3996 303.431C96.288 303.208 96.1763 302.984 96.1205 302.761C96.0089 302.426 95.8973 302.092 95.7857 301.813C95.7299 301.589 95.6183 301.366 95.5625 301.143C95.4509 300.752 95.3951 300.417 95.3393 300.027C95.2835 299.859 95.2835 299.636 95.2277 299.469C95.1719 298.911 95.1161 298.297 95.1161 297.739V203.319C95.1161 202.761 95.1719 202.147 95.2277 201.589C95.2835 201.422 95.2835 201.199 95.3393 201.031C95.418 200.421 95.5678 199.821 95.7857 199.246C95.8973 198.911 96.0089 198.576 96.1205 198.297C96.2321 198.074 96.3438 197.85 96.3996 197.627C96.5112 197.348 96.6786 197.013 96.846 196.734C96.9576 196.511 97.0692 196.344 97.2366 196.121C97.5714 195.618 97.9063 195.172 98.2411 194.725C98.4643 194.502 98.6875 194.223 98.9107 194C99.0781 193.833 99.2455 193.665 99.4688 193.498C99.692 193.275 99.971 193.051 100.194 192.884C100.417 192.717 100.585 192.549 100.808 192.438C100.864 192.382 100.975 192.326 101.031 192.27L242.828 97.9063C247.292 94.9487 253.152 94.9487 257.616 97.9063L399.413 192.27C399.469 192.326 399.58 192.382 399.636 192.438L400.25 192.884L401.031 193.498C401.199 193.665 401.366 193.833 401.589 194C401.813 194.223 402.036 194.446 402.259 194.725C402.65 195.172 402.984 195.618 403.263 196.121C403.375 196.344 403.542 196.511 403.654 196.734C403.821 197.013 403.989 197.292 404.1 197.627C404.212 197.85 404.324 198.074 404.379 198.297C404.491 198.632 404.603 198.967 404.714 199.246C404.77 199.469 404.882 199.692 404.938 199.915C405.049 200.306 405.105 200.641 405.161 201.031C405.217 201.199 405.217 201.422 405.272 201.589C405.328 202.147 405.384 202.761 405.384 203.319V297.683ZM263.587 305.105V367.214L368.051 297.683L321.4 266.545L263.587 305.105ZM121.79 228.263V272.795L155.161 250.529L121.79 228.263ZM250.25 219.056L203.096 250.529L250.25 282.002L297.404 250.529L250.25 219.056ZM368.051 203.375L263.587 133.844V195.953L321.4 234.513L368.051 203.375ZM179.1 266.545L132.449 297.683L236.913 367.214V305.105L179.1 266.545Z" fill="white"/>
</svg>
