<svg width="500" height="500" viewBox="0 0 500 500" fill="none" xmlns="http://www.w3.org/2000/svg">
<path d="M480 0H20C8.9375 0 0 8.9375 0 20V480C0 491.063 8.9375 500 20 500H480C491.063 500 500 491.063 500 480V20C500 8.9375 491.063 0 480 0ZM148.312 426.063H74.125V187.437H148.312V426.063ZM111.25 154.813C102.745 154.813 94.4318 152.291 87.3605 147.566C80.2892 142.841 74.7777 136.125 71.5232 128.268C68.2686 120.411 67.4171 111.765 69.0762 103.424C70.7354 95.0824 74.8308 87.4206 80.8444 81.4069C86.8581 75.3932 94.5199 71.2979 102.861 69.6387C111.202 67.9796 119.848 68.8311 127.705 72.0857C135.563 75.3402 142.278 80.8517 147.003 87.923C151.728 94.9943 154.25 103.308 154.25 111.812C154.187 135.562 134.938 154.813 111.25 154.813ZM426.063 426.063H351.937V310C351.937 282.313 351.438 246.75 313.375 246.75C274.813 246.75 268.875 276.875 268.875 308V426.063H194.813V187.437H265.938V220.063H266.937C276.812 201.313 301 181.5 337.125 181.5C412.25 181.5 426.063 230.937 426.063 295.187V426.063Z" fill="white"/>
</svg>
