<svg width="500" height="500" viewBox="0 0 500 500" fill="none" xmlns="http://www.w3.org/2000/svg">
<path d="M250 0C111.927 0 0 111.927 0 250C0 388.073 111.927 500 250 500C388.073 500 500 388.073 500 250C500 111.927 388.073 0 250 0ZM199.557 289.063L195.573 297.109C193.724 300.703 189.427 302.083 186.536 302.083H149.714C143.203 302.083 143.49 297.109 145.078 293.854L147.474 289.063L176.771 230.469L160.495 197.917L158.099 193.099C156.51 189.844 156.224 184.896 162.734 184.896H199.557C202.448 184.896 206.745 186.276 208.594 189.844L212.578 197.917L228.854 230.469L199.557 289.063ZM354.948 141.016L352.552 145.833L287.448 276.042L326.51 354.167L328.906 358.958C330.521 362.214 330.781 367.188 324.271 367.188H287.448C284.531 367.188 280.286 365.807 278.464 362.214L274.427 354.167L235.365 276.042L300.469 145.833L304.505 137.76C306.302 134.167 310.547 132.812 313.49 132.812H350.313C356.823 132.812 356.536 137.76 354.948 141.016Z" fill="white"/>
</svg>
